<svg width="16" height="16" viewBox="0 0 16 16" fill="none" xmlns="http://www.w3.org/2000/svg">
<path d="M7.23915 2.3416C7.47915 1.6048 8.52156 1.6048 8.76076 2.3416L9.61676 4.9752C9.66905 5.13559 9.77072 5.27535 9.90721 5.37449C10.0437 5.47363 10.2081 5.52708 10.3768 5.5272H13.1464C13.9216 5.5272 14.2432 6.5192 13.6168 6.9752L11.3768 8.6024C11.24 8.70163 11.1381 8.84161 11.0858 9.00228C11.0335 9.16296 11.0334 9.33607 11.0856 9.4968L11.9416 12.1304C12.1816 12.8672 11.3376 13.4808 10.7096 13.0248L8.46955 11.3976C8.33292 11.2984 8.1684 11.245 7.99956 11.245C7.83071 11.245 7.66619 11.2984 7.52955 11.3976L5.28956 13.0248C4.66236 13.4808 3.81915 12.8672 4.05835 12.1304L4.91435 9.4968C4.96649 9.33607 4.9664 9.16296 4.91409 9.00228C4.86178 8.84161 4.75993 8.70163 4.62315 8.6024L2.38395 6.976C1.75755 6.52 2.07995 5.528 2.85435 5.528H5.62315C5.79199 5.52805 5.95652 5.47467 6.09317 5.37552C6.22983 5.27637 6.33162 5.13652 6.38396 4.976L7.23996 2.3424L7.23915 2.3416Z" fill="#C1A303"/>
</svg>
